<?xml version="1.0" encoding="utf-8"?>
<!-- Generator: Adobe Illustrator 23.0.0, SVG Export Plug-In . SVG Version: 6.00 Build 0)  -->
<svg version="1.1" id="Layer_3" xmlns="http://www.w3.org/2000/svg" xmlns:xlink="http://www.w3.org/1999/xlink" x="0px" y="0px"
	 viewBox="0 0 256 256" style="enable-background:new 0 0 256 256;" xml:space="preserve">
<style type="text/css">
	.st0{fill:none;stroke:#000000;stroke-miterlimit:10;}
	.st1{fill:#CD3518;}
	.st2{fill:#FFFFFF;}
	.st3{fill:#060733;}
	.st4{fill:#035D9A;}
</style>
<g>
	<path class="st0" d="M84.03,134.55l-3.06,58.17H60.22l8.5-146.62c0,0,86.58,2.21,97.47,2.21s24.49,4.08,24.49,17.35
		s1.02,39.46,0,48.31s-5.44,19.05-16.33,20.75c-9.87,1.02-27.56,1.02-27.56,1.02l54.09,56.81h-29.94l-48.65-57.49L84.03,134.55z"/>
	<path class="st0" d="M87.94,63.96c0,0,70.76,2.04,74.84,2.04s8.5,6.12,8.5,10.89c0,4.76-1.02,27.22-1.02,29.94
		c0,2.72-0.68,9.87-10.89,9.87c-10.21,0-73.14-1.02-73.14-1.02L87.94,63.96z"/>
	<path class="st1" d="M154.45,13.1c12.25,12.25,61.92,57.15,84.37,124.51s-14.29,113.63-31.98,116.69
		c-17.69,3.06-98.15,11.4-166.19-77.39C-11.39,104.1,14.46,25.51,35.21,0l75.52,28.24L154.45,13.1z"/>
	<path class="st2" d="M146.15,135.05l22.57,0.63c11.88,0.33,21.72-9.13,21.85-21.01l0.51-44.59c0.13-11.61-9.07-21.18-20.68-21.5
		l-94.99-2.63h-6.03l-3.34,51.03l-2.25,35.8l-3.75,59.78h20.59l3.52-59.21l38.49,1.06l47.79,58.15h30.78L146.15,135.05z
		 M85.18,116.02h-0.01l3.12-52.38l70.96,1.97c7.05,0.19,12.65,6,12.58,13.05l-0.23,25.56c-0.06,7.17-5.95,12.91-13.11,12.82
		L85.18,116.02z"/>
</g>
</svg>
