<?xml version="1.0" encoding="utf-8"?>
<!-- Generator: Adobe Illustrator 23.0.0, SVG Export Plug-In . SVG Version: 6.00 Build 0)  -->
<svg version="1.1" id="Layer_3" xmlns="http://www.w3.org/2000/svg" xmlns:xlink="http://www.w3.org/1999/xlink" x="0px" y="0px"
	 viewBox="0 0 256 256" style="enable-background:new 0 0 256 256;" xml:space="preserve">
<style type="text/css">
	.st0{fill:none;stroke:#000000;stroke-miterlimit:10;}
	.st1{fill:#CD3518;}
	.st2{fill:#FFFFFF;}
	.st3{fill:#060733;}
	.st4{fill:#035D9A;}
</style>
<g>
	<path class="st0" d="M34.32,131.04l-1.42,27.01h-9.64l3.95-68.08c0,0,40.2,1.03,45.25,1.03c5.05,0,11.37,1.9,11.37,8.06
		s0.47,18.32,0,22.43c-0.47,4.11-2.53,8.85-7.58,9.64c-4.58,0.47-12.79,0.47-12.79,0.47l25.11,26.38h-13.9l-22.59-26.69
		L34.32,131.04z"/>
	<path class="st0" d="M36.13,98.27c0,0,32.85,0.95,34.75,0.95s3.95,2.84,3.95,5.05s-0.47,12.64-0.47,13.9s-0.32,4.58-5.05,4.58
		c-4.74,0-33.96-0.47-33.96-0.47L36.13,98.27z"/>
	<path class="st1" d="M67.01,74.65c5.69,5.69,28.75,26.54,39.17,57.81s-6.63,52.76-14.85,54.18c-8.21,1.42-45.57,5.29-77.16-35.93
		c-24.17-33.8-12.16-70.29-2.53-82.13l35.07,13.11L67.01,74.65z"/>
	<path class="st2" d="M63.16,131.27l10.48,0.29c5.51,0.15,10.08-4.24,10.15-9.76l0.24-20.7c0.06-5.39-4.21-9.83-9.6-9.98l-44.1-1.22
		h-2.8l-1.55,23.69l-1.04,16.62l-1.74,27.76h9.56l1.63-27.49l17.87,0.49l22.19,27h14.29L63.16,131.27z M34.85,122.44L34.85,122.44
		l1.44-24.32l32.95,0.91c3.27,0.09,5.87,2.79,5.84,6.06l-0.11,11.87c-0.03,3.33-2.76,6-6.09,5.95L34.85,122.44z"/>
	<path class="st1" d="M126.18,92.26h-12.36c-0.78,0-1.41-0.63-1.42-1.4l-0.12-11.38c-0.01-0.79,0.63-1.43,1.42-1.43h12.36
		c0.78,0,1.41,0.63,1.42,1.4l0.12,11.38C127.61,91.62,126.97,92.26,126.18,92.26z"/>
	<path class="st3" d="M128.05,171.4h-14.4c-0.22,0-0.4-0.18-0.4-0.39l-0.76-71.76c0-0.36,0.29-0.66,0.66-0.66h13.89
		c0.36,0,0.65,0.29,0.66,0.65l0.76,71.76C128.45,171.22,128.27,171.4,128.05,171.4z"/>
	<path class="st3" d="M173.6,171.4h-15.15c-0.79,0-1.52-0.31-1.64-0.69L145.98,136l0.63,34.87c0,0.29-0.17,0.52-0.39,0.52h-14.41
		c-0.22,0-0.4-0.23-0.4-0.51l-1.26-91.15c-0.01-0.45,0.28-0.82,0.63-0.82h13.53c0.35,0,0.64,0.36,0.65,0.8l0.74,41.2l8.53-23.85
		c0.09-0.25,0.75-0.46,1.48-0.46h13.97c0.75,0,1.28,0.21,1.18,0.47l-12.17,31.66l16.1,41.94C174.95,171.07,174.41,171.4,173.6,171.4
		z"/>
	<path class="st3" d="M212.8,151.37l-2.03-37.8c-0.56-10.36-9.06-18.47-19.36-18.47c-11.12,0-19.95,9.4-19.35,20.58l2.03,37.8
		c0.55,10.36,9.06,18.47,19.35,18.47c5.38,0,10.23-2.2,13.73-5.74C210.91,162.44,213.11,157.14,212.8,151.37z M193.46,156.45
		c-2.64,0-4.82-2.06-4.97-4.7l-2.05-36.45c-0.16-2.86,2.11-5.26,4.97-5.26c2.64,0,4.82,2.06,4.97,4.7l2.05,36.45
		c0,0.09,0.01,0.19,0.01,0.28C198.44,154.21,196.23,156.45,193.46,156.45z"/>
	<polygon class="st4" points="108,177.08 252.37,174.08 230.41,177.71 	"/>
	<path class="st3" d="M105.47,178.03h121.62l-14.22,3c-2.21,0.32-16.58-0.32-22.59-0.47C184.29,180.4,149.07,178.66,105.47,178.03z"
		/>
	<path class="st3" d="M256,171.48h-14.77l-5.34-59.31c0,0,0,0,0,0c-1.05-1.74-4.2-5.61-8.47-0.28l4.5,59.59h-14.77l-5.65-74.91
		c-0.01-0.15,0.09-0.27,0.23-0.27h14.27c0.14,0,0.26,0.12,0.27,0.26l0.24,3.14c0,0,3.44-3.48,8.02-3.48c0.96,0,2.11-0.03,3.35,0.08
		c4.67,0.43,10.6,2.93,12.46,17.14c0,0,0,0,0,0.01l0.43,4.41L256,171.48z"/>
	<path class="st3" d="M250.76,117.85l-0.43-4.41C250.55,115.11,250.69,116.57,250.76,117.85z"/>
</g>
</svg>
