<?xml version="1.0" encoding="utf-8"?>
<!-- Generator: Adobe Illustrator 23.0.0, SVG Export Plug-In . SVG Version: 6.00 Build 0)  -->
<svg version="1.1" id="Layer_3" xmlns="http://www.w3.org/2000/svg" xmlns:xlink="http://www.w3.org/1999/xlink" x="0px" y="0px"
	 viewBox="0 0 1939.45 2106" style="enable-background:new 0 0 1939.45 2106;" xml:space="preserve">
<style type="text/css">
	.st0{fill:none;stroke:#000000;stroke-miterlimit:10;}
	.st1{fill:#CD3518;}
	.st2{fill:#FFFFFF;}
	.st3{fill:#060733;}
	.st4{fill:#035D9A;}
</style>
<g>
	<path class="st0" d="M608.01,1106.86l-25.19,478.57H412.1l69.97-1206.21c0,0,712.25,18.19,801.81,18.19
		c89.56,0,201.5,33.58,201.5,142.73s8.4,324.64,0,397.41s-44.78,156.72-134.33,170.72c-81.16,8.4-226.69,8.4-226.69,8.4
		l444.98,467.37h-246.28l-400.21-472.97L608.01,1106.86z"/>
	<path class="st0" d="M640.19,526.14c0,0,582.12,16.79,615.7,16.79c33.58,0,69.97,50.38,69.97,89.56s-8.4,223.89-8.4,246.28
		c0,22.39-5.6,81.16-89.56,81.16s-601.71-8.4-601.71-8.4L640.19,526.14z"/>
	<path class="st1" d="M1187.33,107.75c100.75,100.75,509.35,470.17,694.06,1024.3s-117.54,934.75-263.07,959.93
		s-807.41,93.75-1367.14-636.69C-177.01,856.38,35.69,209.9,206.4,0l621.3,232.29L1187.33,107.75z"/>
	<path class="st2" d="M1119.04,1111l185.66,5.15c97.7,2.71,178.67-75.14,179.78-172.87l4.23-366.79
		c1.09-95.49-74.61-174.24-170.1-176.9l-781.46-21.63h-49.62l-27.48,419.77l-18.47,294.53l-30.87,491.78h169.4l28.94-487.13
		l316.67,8.76l393.18,478.37h253.25L1119.04,1111z M617.5,954.48h-0.08l25.66-430.93l583.8,16.18
		c57.99,1.6,104.03,49.37,103.47,107.36l-1.93,210.23c-0.53,58.97-48.92,106.24-107.89,105.42L617.5,954.48z"/>
</g>
</svg>
