<?xml version="1.0" encoding="utf-8"?>
<!-- Generator: Adobe Illustrator 23.0.0, SVG Export Plug-In . SVG Version: 6.00 Build 0)  -->
<svg version="1.1" id="Layer_3" xmlns="http://www.w3.org/2000/svg" xmlns:xlink="http://www.w3.org/1999/xlink" x="0px" y="0px"
	 viewBox="0 0 2106 977.81" style="enable-background:new 0 0 2106 977.81;" xml:space="preserve">
<style type="text/css">
	.st0{fill:none;stroke:#000000;stroke-miterlimit:10;}
	.st1{fill:#CD3518;}
	.st2{fill:#FFFFFF;}
	.st3{fill:#060733;}
	.st4{fill:#035D9A;}
</style>
<g>
	<path class="st0" d="M282.3,513.91l-11.69,222.2h-79.26l32.48-560.04c0,0,330.7,8.45,372.28,8.45s93.56,15.59,93.56,66.27
		s3.9,150.73,0,184.51s-20.79,72.77-62.37,79.26c-37.68,3.9-105.25,3.9-105.25,3.9l206.6,217H614.29l-185.81-219.6L282.3,513.91z"/>
	<path class="st0" d="M297.24,244.29c0,0,270.27,7.8,285.87,7.8c15.59,0,32.48,23.39,32.48,41.58s-3.9,103.95-3.9,114.35
		s-2.6,37.68-41.58,37.68c-38.98,0-279.37-3.9-279.37-3.9L297.24,244.29z"/>
	<path class="st1" d="M551.27,50.03c46.78,46.78,236.49,218.3,322.25,475.58s-54.57,434-122.14,445.69s-374.88,43.53-634.76-295.61
		C-82.18,397.62,16.57,97.45,95.83,0L384.3,107.85L551.27,50.03z"/>
	<path class="st2" d="M519.57,515.83l86.2,2.39c45.36,1.26,82.95-34.89,83.47-80.26l1.96-170.3c0.51-44.34-34.64-80.9-78.98-82.13
		L249.4,175.48h-23.04l-12.76,194.9l-8.58,136.75l-14.33,228.33h78.65l13.44-226.17l147.03,4.07l182.55,222.11h117.58L519.57,515.83
		z M286.7,443.16h-0.04l11.92-200.08l271.05,7.51c26.92,0.74,48.3,22.92,48.04,49.84l-0.9,97.61
		c-0.25,27.38-22.71,49.33-50.09,48.95L286.7,443.16z"/>
	<path class="st1" d="M1038.04,194.91h-101.7c-6.4,0-11.6-5.15-11.67-11.55l-0.99-93.61c-0.07-6.49,5.18-11.79,11.67-11.79h101.7
		c6.4,0,11.6,5.15,11.67,11.55l0.99,93.61C1049.78,189.61,1044.54,194.91,1038.04,194.91z"/>
	<path class="st3" d="M1053.43,845.91h-118.5c-1.79,0-3.25-1.44-3.27-3.24l-6.25-590.33c-0.03-3,2.39-5.45,5.4-5.45h114.25
		c2.96,0,5.36,2.38,5.4,5.34l6.25,590.38C1056.72,844.42,1055.25,845.91,1053.43,845.91z"/>
	<path class="st3" d="M1428.09,845.91h-124.63c-6.52,0-12.53-2.53-13.51-5.68l-89.05-285.52l5.18,286.88
		c0.04,2.38-1.4,4.31-3.22,4.31h-118.51c-1.79,0-3.26-1.88-3.29-4.22l-10.37-749.83c-0.05-3.72,2.29-6.74,5.21-6.74h111.29
		c2.88,0,5.26,2.95,5.33,6.6l6.12,338.91l70.18-196.22c0.74-2.08,6.16-3.76,12.16-3.76h114.96c6.17,0,10.56,1.75,9.75,3.9
		l-100.09,260.43l132.41,345.04C1439.27,843.24,1434.8,845.91,1428.09,845.91z"/>
	<path class="st3" d="M1750.64,681.18l-16.67-310.93c-4.57-85.21-74.51-151.95-159.23-151.95c-91.44,0-164.15,77.3-159.22,169.27
		l16.67,310.93c4.56,85.21,74.49,151.95,159.22,151.95c44.26,0,84.12-18.1,112.92-47.22
		C1735.05,772.21,1753.19,728.65,1750.64,681.18z M1591.5,722.98c-21.73,0-39.68-16.97-40.9-38.67l-16.85-299.82
		c-1.33-23.49,17.37-43.27,40.91-43.27c21.74,0,39.68,16.97,40.91,38.67l16.87,299.82c0.04,0.78,0.06,1.56,0.06,2.33
		C1632.49,704.49,1614.27,722.98,1591.5,722.98z"/>
	<polygon class="st4" points="888.47,892.69 2076.11,868 1895.5,897.88 	"/>
	<path class="st3" d="M867.67,900.48h1000.54l-116.95,24.69c-18.19,2.6-136.44-2.6-185.81-3.9S1226.31,905.68,867.67,900.48z"/>
	<path class="st3" d="M2106,846.56h-121.53l-43.95-487.92c-0.01,0-0.01-0.01-0.01-0.01c-8.63-14.28-34.55-46.15-69.66-2.29
		l36.99,490.22H1786.3l-46.52-616.29c-0.09-1.22,0.78-2.22,1.92-2.22h117.41c1.13,0,2.12,0.97,2.21,2.17l1.95,25.85
		c0,0,28.33-28.66,66.01-28.66c7.91,0,17.39-0.27,27.59,0.65c38.4,3.51,87.18,24.1,102.48,141.01c0.01,0.03,0.01,0.04,0.01,0.07
		l3.55,36.31L2106,846.56z"/>
	<path class="st3" d="M2062.91,405.42l-3.55-36.31C2061.16,382.85,2062.3,394.89,2062.91,405.42z"/>
</g>
</svg>
